<svg width="20" height="20" viewBox="0 0 20 20" fill="none" xmlns="http://www.w3.org/2000/svg">
<path d="M0.392624 10.4116C0.392624 10.4116 0.248202 6.9231 2.41453 4.59742C4.58085 2.27174 7.75813 1.54496 9.92445 1.69032C12.0908 1.83567 11.8019 1.98103 11.9464 2.56245C12.0908 3.14387 12.2352 4.16135 12.8129 4.45206C13.3906 4.74277 14.4015 4.88813 14.6904 6.05097C14.9792 7.21381 16.8567 7.21381 17.0011 7.50452C17.1455 7.79523 17.4344 8.81272 17.4344 9.24879C17.4344 9.68485 16.8567 10.1209 16.7123 10.2663C16.5678 10.4116 15.5569 11.1384 15.5569 11.2838C15.5569 11.4291 14.8348 11.5745 14.5459 11.4291C14.2571 11.2838 12.8851 10.1936 12.8851 10.1936C12.8851 10.1936 12.3074 8.74004 12.0186 8.44933C11.7297 8.15862 10.8632 7.14114 10.2855 6.99578C9.70782 6.85042 8.84129 6.55971 8.11918 6.70507C7.39707 6.85042 6.2417 7.72256 5.80843 8.74004C5.37517 9.75753 5.37517 11.0657 5.37517 11.0657C5.37517 11.0657 4.50864 10.4843 4.36422 10.3389C4.2198 10.1936 3.35327 9.17611 2.77558 9.46682C2.19789 9.75753 1.76463 10.4843 1.47579 10.6297C1.18694 10.775 0.392624 10.4116 0.392624 10.4116Z" fill="#FF6338"/>
<path d="M17.969 10.0335C17.9979 14.2634 14.6328 18.0571 10.7334 18.9438C6.4008 19.9177 1.89485 16.9234 0.493956 12.9843C-1.75902 6.69037 4.04673 -0.0977122 10.7768 1.2977C11.0367 1.35584 11.2822 1.37038 11.5422 1.44305C12.0621 1.57387 12.3943 1.77737 12.351 2.446C12.2932 3.5071 12.9287 4.26294 13.954 4.53912C14.4306 4.66994 14.7917 4.81529 14.835 5.44032C14.9072 6.29792 15.7593 7.02469 16.6258 7.02469C17.2902 7.02469 17.5935 7.28633 17.6368 7.9695C17.709 8.65267 17.8679 9.35037 17.969 10.0335ZM17.0736 10.615C17.0013 10.5714 16.9436 10.5278 16.8714 10.4841C16.6403 10.7167 16.3803 10.9347 16.1781 11.1818C15.7449 11.7197 15.1816 12.0104 14.5462 11.7923C14.1418 11.647 13.853 11.24 13.4919 10.9638C13.333 10.8475 13.1453 10.6586 13.0009 10.6876C12.8564 10.7167 12.712 10.9638 12.6543 11.1382C12.1632 12.9261 10.8779 13.7692 9.1737 14.0163C8.1483 14.1616 6.15528 13.3767 5.54871 11.8796C5.41873 11.5598 5.07212 11.3272 4.79772 11.0801C4.43667 10.7603 4.0034 10.4987 3.65679 10.1644C3.22353 9.7283 2.77582 9.69923 2.357 10.1353C2.15481 10.3533 1.96706 10.5859 1.73598 10.7749C1.44714 11.0365 0.956106 11.2109 0.869453 11.5162C0.768358 11.865 1.01387 12.3156 1.12941 12.7226C1.18718 12.9116 1.30272 13.1005 1.37493 13.2895C2.57363 16.0076 4.63886 17.7228 7.4984 18.2752C10.9501 18.9293 14.2718 17.3158 16.0482 14.2488C16.7269 13.1296 17.218 11.9377 17.0736 10.615ZM4.95659 10.5132C5.10101 9.90272 5.21654 9.46666 5.31764 9.03059C5.66425 7.44622 7.54173 6.02174 9.11593 6.2107C10.8057 6.4142 12.1921 7.3154 12.6831 9.21955C12.7409 9.43759 12.8564 9.67015 13.0153 9.80097C13.3908 10.1208 13.853 10.3679 14.1996 10.7167C14.8061 11.3127 15.0661 11.2981 15.6582 10.6731C16.0337 10.2661 16.5103 9.9754 16.958 9.62655C17.1024 9.45212 17.088 9.14688 17.1024 8.84163C17.1169 8.24567 17.0158 7.83868 16.2792 7.70786C15.3549 7.54797 14.6328 6.95201 14.3295 6.07988C14.1418 5.52753 13.8385 5.28043 13.3619 5.09147C12.4232 4.69901 11.8022 4.0013 11.7155 2.98382C11.6577 2.25704 11.2678 2.06808 10.6901 1.98087C7.12291 1.45759 4.22003 2.54775 2.12592 5.58567C1.12941 7.02469 0.652821 8.60906 0.811684 10.3679C1.41826 10.5132 1.56268 10.0481 1.79375 9.74283C2.45809 8.88524 3.44016 8.84163 4.16227 9.65562C4.40778 9.88819 4.63886 10.1644 4.95659 10.5132ZM8.92818 13.2459C10.7479 13.3912 12.091 11.6034 12.1055 10.1353C12.1199 8.53639 10.6035 6.95201 8.94262 6.95201C7.55617 6.96655 5.852 8.36196 5.852 10.1062C5.82311 11.7487 7.41175 13.4058 8.92818 13.2459Z" fill="#FF6338"/>
<path d="M8.00421 3.55048C8.2064 3.57955 8.49524 3.55048 8.61078 3.66676C8.8563 3.91386 9.0296 4.23365 9.23179 4.52436C9.04405 4.56796 8.78409 4.72785 8.68299 4.65518C8.37971 4.42261 8.14863 4.10283 7.88867 3.81212C7.932 3.73944 7.97533 3.63769 8.00421 3.55048Z" fill="white"/>
<path d="M14.9219 9.84455C14.5898 9.52477 14.2865 9.27766 14.041 8.98695C13.9543 8.8852 14.0265 8.65264 14.041 8.47821C14.2143 8.50728 14.4453 8.46367 14.532 8.56542C14.8064 8.8852 15.4418 9.0887 14.9219 9.84455Z" fill="white"/>
<path d="M2.51601 8.33279C2.51601 8.11476 2.42936 7.82405 2.53045 7.70777C2.79041 7.43159 3.15147 7.24263 3.46919 7.0246C3.49808 7.21356 3.59917 7.4752 3.51252 7.59148C3.28145 7.89673 2.96372 8.1293 2.68932 8.39094C2.64599 8.36186 2.57378 8.34733 2.51601 8.33279Z" fill="white"/>
<path d="M5.23069 4.64081C5.44732 4.90245 5.59175 5.07687 5.73617 5.23676C5.47621 5.33851 5.23069 5.51294 4.97073 5.54201C4.82631 5.55655 4.653 5.30944 4.49414 5.17862C4.71077 5.03327 4.92741 4.87338 5.23069 4.64081Z" fill="white"/>
<path d="M11.7014 6.34147C11.4847 6.15251 11.3259 6.00715 11.167 5.8618C11.3692 5.76005 11.5858 5.58562 11.788 5.60016C11.9758 5.61469 12.1635 5.80366 12.3512 5.91994C12.1635 6.03622 11.9758 6.16704 11.7014 6.34147Z" fill="white"/>
<path d="M14.5752 3.18724C14.6041 2.882 14.6474 2.57675 14.6907 2.28604C14.7341 1.99533 14.7918 1.69008 14.864 1.41391C14.8929 1.26855 14.9074 1.10866 14.9218 0.963308C14.9363 0.817953 14.994 0.672598 15.0951 0.556314C15.1818 0.44003 15.2973 0.323746 15.4417 0.236532C15.5861 0.149319 15.745 0.0475708 15.9761 0.00396422C16.0194 -0.0105713 16.0772 0.0184997 16.0916 0.0621063C16.2072 0.265604 16.2505 0.454565 16.2794 0.628991C16.3083 0.803418 16.3083 0.963308 16.2794 1.10866C16.2505 1.25402 16.1927 1.38484 16.0916 1.50112C15.9905 1.61741 15.8894 1.73369 15.8028 1.84997C15.6439 2.09708 15.4562 2.32965 15.2684 2.56222C15.0807 2.79478 14.8929 3.02735 14.6763 3.25992C14.6474 3.28899 14.6041 3.28899 14.5752 3.25992C14.5896 3.23085 14.5752 3.20178 14.5752 3.18724Z" fill="#FF6338"/>
<path d="M15.9179 4.26308C16.2067 4.1468 16.4811 4.04505 16.77 3.95783C17.0588 3.87062 17.3477 3.78341 17.6221 3.71073C17.7665 3.68166 17.9109 3.60898 18.0553 3.56537C18.1997 3.52177 18.3442 3.50723 18.4886 3.5363C18.633 3.56537 18.7774 3.62352 18.9363 3.71073C19.0807 3.79794 19.2396 3.89969 19.384 4.08865C19.4129 4.13226 19.4129 4.17587 19.384 4.21947C19.254 4.40843 19.1096 4.53925 18.9652 4.641C18.8208 4.74275 18.6908 4.81543 18.5464 4.85904C18.4019 4.90264 18.2575 4.90264 18.1131 4.87357C17.9687 4.8445 17.8242 4.78636 17.6798 4.77182C17.391 4.72822 17.1021 4.68461 16.7989 4.62647C16.51 4.56833 16.2067 4.49565 15.9179 4.40843C15.8746 4.3939 15.8601 4.36483 15.8746 4.32122C15.889 4.27761 15.9034 4.26308 15.9179 4.26308Z" fill="#FF6338"/>
<path d="M15.3544 3.60897C15.6144 3.28919 15.8743 2.99848 16.1487 2.70777L16.5531 2.27171C16.6975 2.12635 16.8275 1.99553 16.9719 1.85018C17.1164 1.71936 17.2319 1.54493 17.3763 1.39958C17.5063 1.25422 17.6652 1.1234 17.8385 1.05072C18.0118 0.96351 18.214 0.905368 18.4161 0.861761C18.6328 0.818155 18.8494 0.803619 19.1238 0.83269C19.1671 0.83269 19.2105 0.890832 19.196 0.934439C19.1527 1.19608 19.066 1.41411 18.9649 1.60307C18.8639 1.79203 18.7339 1.95193 18.6039 2.11182C18.4739 2.25717 18.3151 2.37346 18.1273 2.46067C17.9396 2.54788 17.7518 2.62056 17.5785 2.70777C17.4052 2.79499 17.2319 2.89673 17.0586 2.98395L16.5242 3.24559C16.1632 3.42001 15.8021 3.5799 15.4266 3.72526C15.3977 3.73979 15.3544 3.72526 15.34 3.68165C15.3255 3.65258 15.34 3.63805 15.3544 3.60897Z" fill="#FF6338"/>
</svg>
