<svg width="196" height="50" viewBox="0 0 196 50" fill="none" xmlns="http://www.w3.org/2000/svg">
<path d="M52.0173 27.1529C52.0173 27.1529 51.6413 18.0546 57.2811 11.9891C62.921 5.92357 71.1928 4.02809 76.8326 4.40718C82.4725 4.78628 81.7205 5.16538 82.0965 6.68176C82.4725 8.19814 82.8484 10.8518 84.3524 11.61C85.8564 12.3682 88.4883 12.7473 89.2403 15.7801C89.9922 18.8128 94.8801 18.8128 95.2561 19.571C95.6321 20.3292 96.3841 22.9829 96.3841 24.1202C96.3841 25.2575 94.8801 26.3947 94.5041 26.7738C94.1281 27.1529 91.4962 29.0484 91.4962 29.4275C91.4962 29.8066 89.6163 30.1857 88.8643 29.8066C88.1123 29.4275 84.5404 26.5843 84.5404 26.5843C84.5404 26.5843 83.0364 22.7933 82.2845 22.0351C81.5325 21.2769 79.2765 18.6233 77.7726 18.2442C76.2686 17.8651 74.0127 17.1069 72.1327 17.486C70.2528 17.8651 67.2449 20.1397 66.1169 22.7933C64.9889 25.447 64.9889 28.8589 64.9889 28.8589C64.9889 28.8589 62.733 27.3425 62.357 26.9634C61.981 26.5843 59.7251 23.9306 58.2211 24.6888C56.7172 25.447 55.5892 27.3425 54.8372 27.7216C54.0852 28.1007 52.0173 27.1529 52.0173 27.1529Z" fill="white" fill-opacity="0.4"/>
<path d="M97.7751 26.1675C97.8503 37.1992 89.0898 47.0936 78.938 49.406C67.6583 51.946 55.9275 44.1366 52.2804 33.8631C46.4149 17.4483 61.5297 -0.255508 79.0508 3.38381C79.7276 3.53545 80.3668 3.57336 81.0436 3.76291C82.3971 4.10409 83.2619 4.63483 83.1491 6.37867C82.9987 9.14607 84.6531 11.1174 87.3226 11.8377C88.5634 12.1788 89.5033 12.5579 89.6161 14.188C89.8041 16.4247 92.0225 18.3202 94.2784 18.3202C96.008 18.3202 96.7975 19.0026 96.9103 20.7843C97.0983 22.5661 97.5119 24.3857 97.7751 26.1675ZM95.444 27.6839C95.256 27.5701 95.1056 27.4564 94.9176 27.3427C94.316 27.9492 93.6392 28.5179 93.1128 29.1623C91.9849 30.565 90.5185 31.3232 88.8642 30.7545C87.8114 30.3754 87.0594 29.314 86.1194 28.5937C85.7058 28.2904 85.2171 27.7976 84.8411 27.8734C84.4651 27.9492 84.0891 28.5937 83.9387 29.0486C82.6603 33.7115 79.314 35.9102 74.8773 36.5547C72.2078 36.9338 67.0192 34.8867 65.44 30.982C65.1016 30.148 64.1992 29.5414 63.4849 28.897C62.5449 28.063 61.4169 27.3806 60.5145 26.5087C59.3866 25.3714 58.221 25.2956 57.1306 26.4328C56.6042 27.0015 56.1155 27.608 55.5139 28.1009C54.7619 28.7832 53.4835 29.2382 53.2579 30.0343C52.9947 30.9441 53.6339 32.1193 53.9347 33.1807C54.0851 33.6736 54.3859 34.1664 54.5739 34.6592C57.6946 41.7483 63.0713 46.2216 70.5159 47.6622C79.502 49.3681 88.1498 45.1602 92.7744 37.1613C94.5416 34.2422 95.82 31.1336 95.444 27.6839ZM63.8984 27.4185C64.2744 25.8263 64.5752 24.689 64.8384 23.5517C65.7408 19.4196 70.6287 15.7044 74.7269 16.1973C79.126 16.728 82.7355 19.0784 84.0139 24.0445C84.1643 24.6132 84.4651 25.2197 84.8787 25.5609C85.8562 26.3949 87.0594 27.0394 87.9618 27.9492C89.5409 29.5035 90.2177 29.4656 91.7593 27.8355C92.7368 26.774 93.9776 26.0158 95.1432 25.106C95.5192 24.6511 95.4816 23.855 95.5192 23.0589C95.5568 21.5046 95.2936 20.4431 93.376 20.1019C90.9697 19.6849 89.0897 18.1306 88.3002 15.8561C87.8114 14.4155 87.0218 13.771 85.781 13.2782C83.3371 12.2547 81.7203 10.435 81.4948 7.78132C81.3444 5.88585 80.3292 5.39302 78.8252 5.16556C69.5383 3.80082 61.9809 6.64404 56.529 14.5671C53.9347 18.3202 52.6939 22.4523 53.1075 27.0394C54.6867 27.4185 55.0627 26.2054 55.6643 25.4093C57.3938 23.1726 59.9506 23.0589 61.8305 25.1818C62.4697 25.7884 63.0713 26.5087 63.8984 27.4185ZM74.2382 34.5455C78.9756 34.9246 82.4723 30.2617 82.5099 26.4328C82.5475 22.2628 78.5996 18.1306 74.2758 18.1306C70.6663 18.1686 66.2296 21.8079 66.2296 26.357C66.1544 30.6408 70.2903 34.9625 74.2382 34.5455Z" fill="white"/>
<path d="M71.8323 9.25977C72.3587 9.33558 73.1107 9.25977 73.4114 9.56304C74.0506 10.2075 74.5018 11.0415 75.0282 11.7997C74.5394 11.9134 73.8626 12.3304 73.5994 12.1409C72.8099 11.5343 72.2083 10.7003 71.5315 9.94214C71.6443 9.75259 71.7571 9.48722 71.8323 9.25977Z" fill="white"/>
<path d="M89.8414 25.6748C88.9766 24.8408 88.1871 24.1964 87.5479 23.4382C87.3223 23.1728 87.5103 22.5662 87.5479 22.1113C87.9991 22.1871 88.6006 22.0734 88.8262 22.3388C89.5406 23.1728 91.195 23.7035 89.8414 25.6748Z" fill="white"/>
<path d="M57.5442 21.7322C57.5442 21.1635 57.3186 20.4053 57.5818 20.1021C58.2586 19.3818 59.1986 18.889 60.0257 18.3203C60.1009 18.8131 60.3641 19.4955 60.1385 19.7988C59.537 20.5949 58.7098 21.2014 57.9954 21.8838C57.8826 21.808 57.6946 21.7701 57.5442 21.7322Z" fill="white"/>
<path d="M64.6131 12.103C65.1771 12.7854 65.5531 13.2403 65.9291 13.6573C65.2523 13.9227 64.6131 14.3776 63.9363 14.4534C63.5603 14.4913 63.1091 13.8469 62.6956 13.5057C63.2595 13.1266 63.8235 12.7096 64.6131 12.103Z" fill="white"/>
<path d="M81.4571 16.5386C80.8931 16.0458 80.4795 15.6667 80.0659 15.2876C80.5923 15.0223 81.1563 14.5673 81.6827 14.6053C82.1715 14.6432 82.6602 15.136 83.149 15.4393C82.6602 15.7425 82.1715 16.0837 81.4571 16.5386Z" fill="white"/>
<path d="M88.9397 8.31206C89.0149 7.51596 89.1277 6.71986 89.2405 5.96167C89.3533 5.20347 89.5037 4.40737 89.6917 3.68709C89.7669 3.308 89.8045 2.89099 89.8421 2.51189C89.8797 2.1328 90.0301 1.7537 90.2933 1.45043C90.5189 1.14715 90.8196 0.843872 91.1956 0.616415C91.5716 0.388957 91.9852 0.12359 92.5868 0.00986141C92.6996 -0.0280482 92.85 0.047771 92.8876 0.1615C93.1884 0.692234 93.3012 1.18506 93.3764 1.63997C93.4516 2.09489 93.4516 2.51189 93.3764 2.89099C93.3012 3.27009 93.1508 3.61127 92.8876 3.91455C92.6244 4.21782 92.3612 4.5211 92.1356 4.82438C91.722 5.46884 91.2332 6.07539 90.7444 6.68195C90.2557 7.2885 89.7669 7.89505 89.2029 8.50161C89.1277 8.57743 89.0149 8.57743 88.9397 8.50161C88.9773 8.42579 88.9397 8.34997 88.9397 8.31206Z" fill="white"/>
<path d="M92.4357 11.1175C93.1877 10.8143 93.9021 10.5489 94.6541 10.3214C95.4061 10.094 96.158 9.86653 96.8724 9.67698C97.2484 9.60116 97.6244 9.41161 98.0004 9.29788C98.3764 9.18415 98.7524 9.14624 99.1284 9.22206C99.5043 9.29788 99.8803 9.44952 100.294 9.67698C100.67 9.90444 101.083 10.1698 101.459 10.6626C101.535 10.7764 101.535 10.8901 101.459 11.0038C101.121 11.4966 100.745 11.8378 100.369 12.1032C99.9931 12.3686 99.6547 12.5581 99.2787 12.6718C98.9028 12.7856 98.5268 12.7856 98.1508 12.7097C97.7748 12.6339 97.3988 12.4823 97.0228 12.4444C96.2708 12.3306 95.5189 12.2169 94.7293 12.0653C93.9773 11.9136 93.1877 11.7241 92.4357 11.4966C92.3229 11.4587 92.2853 11.3829 92.3229 11.2692C92.3605 11.1555 92.3981 11.1175 92.4357 11.1175Z" fill="white"/>
<path d="M90.9697 9.41152C91.6465 8.57751 92.3232 7.81932 93.0376 7.06113L94.0904 5.92384C94.4664 5.54475 94.8048 5.20356 95.1808 4.82446C95.5568 4.48328 95.8575 4.02836 96.2335 3.64927C96.5719 3.27017 96.9855 2.92898 97.4367 2.73944C97.8879 2.51198 98.4143 2.36034 98.9407 2.24661C99.5046 2.13288 100.069 2.09497 100.783 2.17079C100.896 2.17079 101.009 2.32243 100.971 2.43616C100.858 3.11853 100.633 3.68718 100.369 4.18C100.106 4.67283 99.7678 5.08983 99.4294 5.50684C99.0911 5.88593 98.6775 6.18921 98.1887 6.41667C97.6999 6.64412 97.2111 6.83367 96.7599 7.06113C96.3087 7.28859 95.8575 7.55395 95.4064 7.78141L94.0152 8.46378C93.0752 8.9187 92.1352 9.33571 91.1577 9.7148C91.0825 9.75271 90.9697 9.7148 90.9321 9.60107C90.8945 9.52525 90.9321 9.48734 90.9697 9.41152Z" fill="white"/>
<path d="M19.2189 8.73889C20.0024 9.99356 20.6937 11.2482 21.2007 12.5958C21.7077 13.9434 22.1686 15.3375 22.4912 16.7781C22.6755 17.3822 22.7677 17.9398 22.8599 18.4974C22.906 19.0551 22.9521 19.6592 22.9982 20.2168C22.906 21.9362 22.8599 23.6555 22.8138 25.3749C22.7677 27.0942 22.5834 28.8136 22.2607 30.4865C22.2607 30.533 22.2607 30.533 22.2147 30.533C22.2147 30.533 22.1686 30.533 22.1686 30.5794C21.4312 32.717 20.4633 34.7617 19.2189 36.7134C17.9745 38.6651 16.6379 40.4774 15.3014 42.1967C12.9048 42.2897 10.5082 42.3362 8.06549 42.3362C5.6228 42.3362 3.27228 42.3826 1.01395 42.3826L0.92177 42.4756C0.506973 39.5945 0.276531 36.6204 0.184354 33.507C0.0460885 30.44 0 27.2801 0 24.1202C0 20.9603 0.0460885 17.7539 0.092177 14.5011C0.138265 11.2482 0.138265 8.08832 0.0460885 4.88194C0.092177 4.83547 0.092177 4.789 0.138265 4.789C0.138265 4.74253 0.184354 4.69606 0.230442 4.69606C1.24439 4.46371 2.30442 4.27784 3.41055 4.1849C4.51667 4.09196 5.6228 4.04549 6.72892 4.09196C7.83504 4.09196 8.94117 4.13843 10.0473 4.1849C11.1534 4.23137 12.2135 4.23137 13.2735 4.1849C14.4257 4.46371 15.5318 5.06781 16.5919 5.90426C17.698 6.69424 18.5737 7.67009 19.2189 8.73889ZM14.2413 28.6277C14.8405 27.6983 15.3014 26.6295 15.5779 25.5143C15.8544 24.399 15.8544 23.1444 15.5318 21.7967C15.4396 21.2391 15.3014 20.6815 15.1631 20.0774C15.0248 19.4733 14.7944 18.9157 14.5179 18.358C14.2413 17.8004 13.9187 17.3357 13.5039 16.9175C13.0891 16.4993 12.5822 16.174 11.983 15.9416C11.3839 15.8487 10.6925 15.8022 9.95512 15.8022C9.2177 15.8022 8.52637 15.8487 7.88113 15.9881H7.83504H7.78896V16.174C7.88113 17.1498 7.88113 18.2186 7.88113 19.3339C7.88113 20.4491 7.88113 21.6573 7.83504 22.8655C7.78896 24.0737 7.78896 25.3284 7.78896 26.5831C7.78896 27.8377 7.83504 29.0924 7.88113 30.3471C8.29593 30.7188 8.84899 30.8582 9.54032 30.8582C10.2316 30.8118 10.923 30.7653 11.5682 30.6724C11.7526 30.7188 11.8908 30.6724 12.0752 30.5794C12.2135 30.4865 12.3978 30.3936 12.5822 30.3471C12.9509 30.1147 13.2735 29.8824 13.55 29.5571C13.7805 29.2783 14.0109 28.953 14.2413 28.6277Z" fill="white"/>
<path d="M26.5008 17.5682C26.7313 17.0106 27.1461 16.5459 27.7452 16.1276C28.2983 15.7094 28.9435 15.3841 29.681 15.1053C30.4184 14.8265 31.2019 14.6406 32.0776 14.5477C32.9071 14.4548 33.7828 14.3618 34.6585 14.3618C35.3959 14.4548 36.0873 14.4548 36.7325 14.4083C37.4238 14.3618 38.1151 14.3618 38.8987 14.4548C40.0509 14.5477 41.157 14.7336 42.217 15.1518C43.2771 15.5235 44.1527 16.0812 44.9362 16.8247C45.4432 17.15 45.858 17.6611 46.1345 18.4046C46.4111 19.1481 46.6415 19.9846 46.7798 20.9605C46.918 21.9363 47.0102 23.0051 47.0563 24.1204C47.1024 25.2821 47.1485 26.4438 47.1485 27.652C47.1024 28.7208 47.0563 29.929 47.0102 31.2766C46.9641 32.6242 46.872 33.9254 46.7337 35.18C46.5954 36.4347 46.4572 37.55 46.2267 38.5258C45.9963 39.5017 45.7658 40.1987 45.3971 40.5705C44.798 41.4534 43.9684 42.0575 43.0005 42.4292C41.9866 42.801 40.9265 43.0333 39.7743 43.1263C38.6221 43.2192 37.4238 43.2192 36.1794 43.1263C34.935 43.0333 33.8289 42.9869 32.815 42.9869C30.9714 42.6616 29.4044 41.8716 28.16 40.5705C27.1922 39.6876 26.5008 38.6188 26.1321 37.2712C25.7634 35.97 25.533 34.5759 25.4869 33.1354C25.3947 31.6948 25.3947 30.2543 25.4408 28.7673C25.4869 27.3267 25.4869 25.9791 25.3486 24.7709C25.3486 24.1204 25.3486 23.4698 25.3947 22.8192C25.4408 22.1687 25.4869 21.5181 25.6252 20.821C25.6713 20.4028 25.8095 19.8917 25.9939 19.1946C26.2243 18.4976 26.4087 17.9399 26.5008 17.5682ZM33.2759 24.0274C33.0454 24.1668 32.9071 24.5386 32.7689 25.1427C32.6306 26.3044 32.5384 27.4661 32.5384 28.6279C32.5384 29.7896 32.4924 30.9978 32.4463 32.2525C32.4002 33.0889 32.6306 33.7395 33.0915 34.2042C33.5524 34.6689 34.1515 34.9477 34.7968 35.1336C35.4881 35.3195 36.1794 35.3194 36.8708 35.2265C37.6082 35.1336 38.2073 34.9477 38.6682 34.7153C39.2674 34.4365 39.6822 33.8324 39.9126 32.903C40.0509 31.7413 40.1891 30.5796 40.2813 29.3714C40.3735 28.1632 40.3274 27.0479 40.097 26.0256C39.9126 24.7709 39.4056 23.7951 38.5299 23.2374C37.6543 22.6333 36.502 22.5404 35.1194 22.8657C34.382 23.0051 33.7367 23.4233 33.2759 24.0274Z" fill="white"/>
<path d="M111.612 18.0793C111.796 17.9863 112.027 17.8469 112.303 17.7075C112.58 17.5681 112.81 17.4287 112.995 17.2893C113.732 16.7317 114.608 16.3134 115.529 15.9881C116.451 15.6629 117.419 15.477 118.433 15.4305C119.447 15.384 120.415 15.5235 121.337 15.7558C122.258 16.0346 123.134 16.4528 123.872 17.1034C124.24 17.4287 124.517 18.1257 124.701 19.1481C124.885 20.1704 125.024 21.425 125.07 22.9121C125.116 24.3526 125.162 25.979 125.116 27.6984C125.116 29.4178 125.07 31.1836 125.024 32.9494C124.978 34.7153 124.932 36.4346 124.932 38.061C124.885 39.6875 124.932 41.128 124.978 42.3827C123.687 42.5686 122.581 42.6615 121.567 42.615C120.553 42.615 119.447 42.5686 118.157 42.5686C118.064 41.7321 118.064 40.8027 118.064 39.7339C118.064 38.6651 118.064 37.5963 118.11 36.4346C118.11 35.3194 118.11 34.1576 118.11 33.0424C118.11 31.9271 118.064 30.8583 117.972 29.8825C117.926 29.4642 117.88 28.9531 117.88 28.4419C117.834 27.9307 117.788 27.3731 117.696 26.8619C117.603 26.3508 117.465 25.8861 117.327 25.5143C117.143 25.0961 116.958 24.8173 116.636 24.585C116.59 24.5385 116.543 24.5385 116.543 24.5385C116.497 24.5385 116.451 24.5385 116.451 24.492C116.175 24.3526 115.714 24.2132 115.161 24.1203C114.608 24.0273 114.055 24.0738 113.502 24.2132C112.949 24.3991 112.488 24.7244 112.027 25.1891C111.612 25.7002 111.335 26.4437 111.289 27.4196C111.197 28.7207 111.197 29.9289 111.243 31.1836C111.289 32.3918 111.335 33.6465 111.382 34.8547C111.428 36.0629 111.474 37.2711 111.474 38.4793C111.474 39.6875 111.382 40.8957 111.243 42.1039V42.3362C110.644 42.5221 110.091 42.615 109.63 42.6615C109.169 42.708 108.708 42.708 108.248 42.708C107.787 42.708 107.234 42.6615 106.681 42.615C106.081 42.5686 105.39 42.615 104.514 42.6615C104.514 38.154 104.468 33.6929 104.376 29.1854C104.284 24.6779 104.33 20.031 104.468 15.2446C104.883 15.2911 105.252 15.2911 105.574 15.3376C105.851 15.3376 106.127 15.384 106.404 15.384C106.634 15.384 106.911 15.384 107.234 15.3376C107.51 15.3376 107.879 15.2911 108.34 15.2446C108.478 15.2446 108.754 15.1982 109.077 15.1517C109.446 15.1052 109.815 15.0588 110.183 15.0123C110.552 14.9658 110.875 14.9658 111.151 14.9658C111.428 14.9658 111.566 15.0588 111.566 15.1517C111.658 15.7558 111.658 16.267 111.658 16.6852C111.566 17.1499 111.612 17.5681 111.612 18.0793Z" fill="white"/>
<path d="M142.169 39.5481C141.984 39.6411 141.754 39.7805 141.477 39.9199C141.201 40.0593 140.97 40.1987 140.786 40.3381C140.048 40.8957 139.173 41.314 138.251 41.6393C137.329 41.9645 136.361 42.1504 135.347 42.1969C134.333 42.2434 133.366 42.104 132.444 41.8716C131.522 41.6393 130.646 41.1746 129.909 40.524C129.54 40.1987 129.264 39.5017 129.079 38.4793C128.895 37.457 128.757 36.2024 128.711 34.7153C128.665 33.2748 128.619 31.6484 128.665 29.929C128.665 28.2096 128.711 26.4438 128.757 24.678C128.803 22.9121 128.849 21.1928 128.849 19.5664C128.895 17.9399 128.849 16.4994 128.803 15.2447C130.047 15.0588 131.199 14.9659 132.213 15.0124C133.227 15.0124 134.333 15.0588 135.624 15.0588C135.716 15.8953 135.716 16.8247 135.716 17.8935C135.716 18.9623 135.716 20.0311 135.67 21.1928C135.67 22.308 135.67 23.4698 135.67 24.585C135.67 25.7003 135.716 26.7691 135.808 27.7449C135.854 28.1632 135.9 28.6743 135.9 29.1855C135.947 29.6967 135.993 30.2543 136.085 30.7655C136.177 31.2766 136.315 31.7413 136.454 32.1131C136.638 32.5313 136.822 32.8101 137.145 33.0424C137.191 33.0889 137.237 33.0889 137.237 33.0889C137.283 33.0889 137.329 33.0889 137.329 33.1354C137.606 33.2748 138.067 33.4142 138.62 33.5071C139.173 33.6001 139.726 33.5536 140.279 33.4142C140.832 33.2283 141.293 32.903 141.754 32.4383C142.169 31.9272 142.445 31.1837 142.491 30.2078C142.583 28.9531 142.583 27.7449 142.537 26.4903C142.491 25.2356 142.445 24.0274 142.399 22.7727C142.353 21.5645 142.307 20.3563 142.307 19.1481C142.307 17.9399 142.353 16.7317 142.537 15.5235V15.2912C143.136 15.1053 143.689 15.0124 144.15 14.9659C144.611 14.9194 145.072 14.9194 145.533 14.9194C145.994 14.9194 146.547 14.9659 147.1 15.0124C147.699 15.0588 148.39 15.0124 149.266 14.9659C149.266 19.4734 149.312 23.9345 149.404 28.442C149.497 32.9495 149.451 37.5964 149.312 42.3828C148.897 42.3363 148.529 42.3363 148.206 42.2898C147.93 42.2898 147.653 42.2434 147.377 42.2434C147.1 42.2434 146.87 42.2434 146.547 42.2898C146.27 42.2898 145.902 42.3363 145.441 42.3828C145.303 42.3828 145.026 42.4292 144.703 42.4757C144.335 42.5222 143.966 42.5686 143.597 42.6151C143.229 42.6616 142.906 42.6616 142.629 42.6616C142.353 42.6616 142.215 42.5686 142.215 42.4757C142.122 41.8716 142.122 41.3604 142.122 40.9422C142.215 40.524 142.169 40.0593 142.169 39.5481Z" fill="white"/>
<path d="M163.001 5.06781V12.4099C163.001 12.8746 163.001 13.3858 163.047 13.897C163.047 14.4081 163.093 14.9193 163.093 15.4769C164.199 15.4304 165.397 15.384 166.642 15.291C167.886 15.1981 169.453 15.1052 171.296 15.0122C171.527 15.291 171.711 15.7557 171.711 16.3134C171.757 16.871 171.757 17.4751 171.711 18.1257C171.665 18.7762 171.619 19.4268 171.573 20.1238C171.527 20.8209 171.527 21.3785 171.619 21.8432H163.185C163.185 23.7949 163.185 25.7466 163.185 27.6054C163.185 29.4642 163.185 31.23 163.231 32.9029C163.6 33.414 164.107 33.8323 164.798 34.1111C165.489 34.3899 166.227 34.6222 167.01 34.8081C167.794 34.994 168.623 35.0869 169.407 35.0869C170.236 35.1334 170.928 35.1334 171.573 35.0869C171.665 35.5981 171.711 36.1557 171.803 36.8063C171.896 37.4104 171.942 38.061 171.988 38.7115C172.034 39.3621 172.034 40.0127 171.942 40.6632C171.896 41.3138 171.757 41.9179 171.573 42.4756C170.144 42.5685 168.623 42.522 167.056 42.4291C165.489 42.3361 164.015 42.1503 162.678 41.7785C161.295 41.4532 160.097 40.9421 158.991 40.2915C157.931 39.6409 157.147 38.758 156.686 37.5963C156.226 34.8081 155.949 32.1129 155.857 29.65C155.765 27.1407 155.765 24.5849 155.811 21.8897C155.212 21.9361 154.612 21.9361 154.013 21.9361C153.368 21.9361 152.677 21.9361 151.939 21.9361L152.124 15.2446C152.861 15.291 153.506 15.291 154.152 15.291C154.797 15.291 155.396 15.291 155.949 15.291C155.949 14.5011 155.949 13.6181 155.903 12.6888C155.857 11.7594 155.857 10.83 155.857 9.85414C155.857 8.92475 155.857 7.99537 155.903 7.11245C155.903 6.22954 155.949 5.43956 156.041 4.74252C156.502 4.64958 157.009 4.64958 157.608 4.69605C158.161 4.74252 158.76 4.78899 159.36 4.83546C159.959 4.88193 160.604 4.9284 161.203 4.97487C161.756 5.16074 162.401 5.16074 163.001 5.06781Z" fill="white"/>
<path d="M196 23.5624C194.848 23.7483 193.557 23.8412 192.175 23.8877C190.792 23.9342 189.456 23.7948 188.257 23.5624C188.349 23.1442 188.303 22.6795 188.119 22.2613C187.935 21.843 187.612 21.4248 187.243 21.0995C186.875 20.7743 186.414 20.5419 185.953 20.356C185.446 20.1702 184.985 20.1237 184.524 20.1702C183.694 20.3096 183.049 20.6348 182.634 21.146C182.22 21.6572 181.989 22.1683 181.989 22.7724C181.989 23.3765 182.22 23.9342 182.634 24.5383C183.049 25.1424 183.694 25.5606 184.524 25.8394C186.552 26.1182 188.442 26.5364 190.239 27.0011C191.99 27.5123 193.327 28.3023 194.157 29.3711C194.94 30.6722 195.447 32.0198 195.631 33.4139C195.816 34.7615 195.539 36.4809 194.894 38.479C194.064 40.2449 192.774 41.546 190.976 42.2895C189.225 43.033 187.243 43.4048 185.169 43.4048C183.326 43.4977 181.667 43.3118 180.192 42.8936C178.717 42.4754 177.426 41.8713 176.366 41.0813C175.306 40.2913 174.477 39.3155 173.878 38.1073C173.278 36.9456 173.002 35.6444 173.002 34.1574V33.9715V33.8786C174.2 33.7392 175.537 33.6927 177.058 33.7392C178.579 33.7856 179.915 33.8321 181.021 33.8321C181.067 34.6686 181.436 35.3656 182.174 35.8768C182.911 36.3879 183.694 36.7132 184.524 36.8061C185.354 36.8991 186.137 36.7597 186.782 36.3415C187.474 35.9232 187.796 35.2262 187.75 34.1574C187.842 33.2745 187.658 32.6239 187.151 32.2057C186.644 31.7875 185.953 31.4157 185.123 31.1834C184.294 30.951 183.372 30.7187 182.312 30.5328C181.252 30.3469 180.238 30.0216 179.224 29.6034C177.196 28.9064 175.721 27.8376 174.799 26.3506C173.878 24.8636 173.463 23.3301 173.509 21.7501C173.555 20.1702 174.062 18.6831 175.03 17.3355C175.998 15.9879 177.334 15.0585 179.132 14.5938C179.823 14.408 180.653 14.2686 181.667 14.1756C182.681 14.0827 183.741 13.9897 184.847 13.9897C185.953 13.9897 187.105 14.0362 188.211 14.1756C189.317 14.315 190.377 14.4544 191.299 14.6868C193.004 15.4303 194.203 16.592 194.94 18.172C195.631 19.7984 196 21.6107 196 23.5624Z" fill="white"/>
</svg>
