<svg width="44" height="43" viewBox="0 0 44 43" fill="none" xmlns="http://www.w3.org/2000/svg">
<ellipse cx="22.3454" cy="21.5" rx="21.6549" ry="21.5" fill="white" fill-opacity="0.2"/>
<g clip-path="url(#clip0_48_220)">
<path d="M25.798 12.5024H18.5797C15.2581 12.5024 12.5645 15.1768 12.5645 18.4747V25.6413C12.5645 28.9392 15.2581 31.6136 18.5797 31.6136H25.798C29.1197 31.6136 31.8133 28.9392 31.8133 25.6413V18.4747C31.8133 15.1768 29.1197 12.5024 25.798 12.5024ZM30.0087 25.6413C30.0087 27.9466 28.1199 29.8219 25.798 29.8219H18.5797C16.2578 29.8219 14.369 27.9466 14.369 25.6413V18.4747C14.369 16.1694 16.2578 14.2941 18.5797 14.2941H25.798C28.1199 14.2941 30.0087 16.1694 30.0087 18.4747V25.6413Z" fill="white"/>
<path d="M22.1892 17.2803C19.5316 17.2803 17.377 19.4195 17.377 22.0581C17.377 24.6966 19.5316 26.8358 22.1892 26.8358C24.8467 26.8358 27.0014 24.6966 27.0014 22.0581C27.0014 19.4195 24.8467 17.2803 22.1892 17.2803ZM22.1892 25.0442C20.5314 25.0442 19.1815 23.704 19.1815 22.0581C19.1815 20.4109 20.5314 19.0719 22.1892 19.0719C23.847 19.0719 25.1968 20.4109 25.1968 22.0581C25.1968 23.704 23.847 25.0442 22.1892 25.0442Z" fill="white"/>
<path d="M27.3602 17.5584C27.7144 17.5584 28.0015 17.2734 28.0015 16.9218C28.0015 16.5702 27.7144 16.2852 27.3602 16.2852C27.0061 16.2852 26.719 16.5702 26.719 16.9218C26.719 17.2734 27.0061 17.5584 27.3602 17.5584Z" fill="white"/>
</g>
<defs>
<clipPath id="clip0_48_220">
<rect width="19.2488" height="19.1111" fill="white" transform="translate(12.5645 12.5024)"/>
</clipPath>
</defs>
</svg>
