<svg width="154" height="40" viewBox="0 0 154 40" fill="none" xmlns="http://www.w3.org/2000/svg">
<g clip-path="url(#clip0_2_106)">
<path d="M40.8711 21.2966C40.8711 21.2966 40.5756 14.1606 45.0069 9.40336C49.4382 4.64608 55.9375 3.15943 60.3688 3.45676C64.8001 3.75409 64.2093 4.05142 64.5047 5.24074C64.8001 6.43006 65.0955 8.51137 66.2772 9.10603C67.4589 9.70069 69.5268 9.99802 70.1177 12.3767C70.7085 14.7553 74.549 14.7553 74.8444 15.35C75.1398 15.9446 75.7307 18.0259 75.7307 18.9179C75.7307 19.8099 74.549 20.7019 74.2536 20.9992C73.9581 21.2966 71.8902 22.7832 71.8902 23.0805C71.8902 23.3779 70.4131 23.6752 69.8223 23.3779C69.2314 23.0805 66.4249 20.8506 66.4249 20.8506C66.4249 20.8506 65.2432 17.8773 64.6524 17.2826C64.0616 16.6879 62.289 14.6066 61.1074 14.3093C59.9257 14.012 58.1532 13.4173 56.676 13.7146C55.1989 14.012 52.8356 15.796 51.9493 17.8773C51.0631 19.9586 51.0631 22.6345 51.0631 22.6345C51.0631 22.6345 49.2905 21.4452 48.9951 21.1479C48.6997 20.8506 46.9272 18.7693 45.7455 19.3639C44.5638 19.9586 43.6775 21.4452 43.0867 21.7426C42.4959 22.0399 40.8711 21.2966 40.8711 21.2966Z" fill="#FF6338"/>
<path d="M76.8237 20.5235C76.8827 29.1758 69.9995 36.9361 62.0231 38.7498C53.1605 40.7419 43.9434 34.6169 41.0778 26.5593C36.4692 13.6849 48.3451 -0.200413 62.1117 2.65396C62.6435 2.77289 63.1457 2.80262 63.6775 2.95129C64.741 3.21888 65.4204 3.63515 65.3318 5.00286C65.2136 7.17337 66.5135 8.71949 68.611 9.28442C69.5859 9.55201 70.3244 9.84934 70.413 11.1279C70.5608 12.8821 72.3037 14.3688 74.0763 14.3688C75.4352 14.3688 76.0556 14.904 76.1442 16.3014C76.2919 17.6989 76.6169 19.126 76.8237 20.5235ZM74.9921 21.7128C74.8443 21.6236 74.7262 21.5344 74.5785 21.4452C74.1058 21.9209 73.574 22.3669 73.1604 22.8724C72.2742 23.9725 71.122 24.5672 69.8222 24.1212C68.995 23.8239 68.4042 22.9913 67.6656 22.4264C67.3407 22.1885 66.9566 21.802 66.6612 21.8615C66.3658 21.9209 66.0704 22.4264 65.9522 22.7832C64.9478 26.4404 62.3185 28.1649 58.8326 28.6703C56.7351 28.9677 52.6583 27.3621 51.4175 24.2996C51.1516 23.6455 50.4426 23.1697 49.8813 22.6643C49.1428 22.0101 48.2565 21.475 47.5475 20.7911C46.6612 19.8991 45.7454 19.8396 44.8887 20.7316C44.4751 21.1776 44.0911 21.6533 43.6184 22.0399C43.0276 22.5751 42.0231 22.9319 41.8459 23.5563C41.6391 24.2699 42.1413 25.1916 42.3776 26.0241C42.4958 26.4106 42.7321 26.7972 42.8799 27.1837C45.3318 32.7438 49.5564 36.2523 55.4057 37.3821C62.4662 38.7201 69.2609 35.4197 72.8946 29.1461C74.283 26.8566 75.2875 24.4185 74.9921 21.7128ZM50.2063 21.5047C50.5017 20.2559 50.738 19.3639 50.9448 18.4719C51.6538 15.231 55.4943 12.3172 58.7144 12.7037C62.1708 13.12 65.0068 14.9634 66.0113 18.8584C66.1294 19.3044 66.3658 19.7802 66.6907 20.0478C67.4588 20.7019 68.4042 21.2074 69.1132 21.9209C70.354 23.14 70.8857 23.1103 72.0969 21.8317C72.865 20.9992 73.8399 20.4046 74.7557 19.691C75.0511 19.3342 75.0216 18.7098 75.0511 18.0854C75.0807 16.8663 74.8739 16.0338 73.3672 15.7662C71.4766 15.4391 69.9995 14.2201 69.3791 12.4361C68.995 11.3063 68.3746 10.8008 67.3998 10.4143C65.4795 9.61148 64.2092 8.1843 64.032 6.10299C63.9138 4.61633 63.1162 4.22981 61.9345 4.05141C54.6376 2.98102 48.6996 5.211 44.416 11.4252C42.3776 14.3688 41.4028 17.6097 41.7277 21.2074C42.9685 21.5047 43.2639 20.5532 43.7366 19.9288C45.0955 18.1746 47.1044 18.0854 48.5815 19.7504C49.0837 20.2262 49.5564 20.7911 50.2063 21.5047ZM58.3303 27.0945C62.0526 27.3918 64.8001 23.7347 64.8296 20.7316C64.8591 17.461 61.7572 14.2201 58.3599 14.2201C55.5239 14.2498 52.0379 17.1042 52.0379 20.6722C51.9788 24.032 55.2284 27.4216 58.3303 27.0945Z" fill="#FF6338"/>
<path d="M56.4396 7.2627C56.8532 7.32216 57.4441 7.2627 57.6804 7.50056C58.1826 8.00602 58.5371 8.66015 58.9507 9.25481C58.5667 9.34401 58.0349 9.67107 57.8281 9.5224C57.2077 9.04668 56.7351 8.39255 56.2033 7.79789C56.2919 7.64922 56.3806 7.44109 56.4396 7.2627Z" fill="white"/>
<path d="M70.59 20.1369C69.9105 19.4828 69.2901 18.9774 68.7879 18.3827C68.6107 18.1746 68.7584 17.6988 68.7879 17.342C69.1424 17.4015 69.6151 17.3123 69.7923 17.5204C70.3536 18.1746 71.6535 18.5908 70.59 20.1369Z" fill="white"/>
<path d="M45.2133 17.0446C45.2133 16.5986 45.036 16.004 45.2428 15.7661C45.7746 15.2012 46.5131 14.8146 47.1631 14.3687C47.2221 14.7552 47.4289 15.2904 47.2517 15.5282C46.779 16.1526 46.1291 16.6284 45.5678 17.1636C45.4792 17.1041 45.3314 17.0744 45.2133 17.0446Z" fill="white"/>
<path d="M50.7675 9.49268C51.2107 10.0279 51.5061 10.3847 51.8015 10.7117C51.2697 10.9199 50.7675 11.2767 50.2358 11.3361C49.9403 11.3659 49.5858 10.8604 49.2609 10.5928C49.704 10.2955 50.1471 9.9684 50.7675 9.49268Z" fill="white"/>
<path d="M64.0023 12.9713C63.5592 12.5847 63.2342 12.2874 62.9093 11.9901C63.3229 11.7819 63.766 11.4251 64.1796 11.4549C64.5636 11.4846 64.9477 11.8711 65.3317 12.109C64.9477 12.3469 64.5636 12.6145 64.0023 12.9713Z" fill="white"/>
<path d="M69.8809 6.51926C69.9399 5.89487 70.0286 5.27048 70.1172 4.67582C70.2058 4.08116 70.324 3.45676 70.4717 2.89184C70.5308 2.59451 70.5603 2.26744 70.5899 1.97011C70.6194 1.67278 70.7376 1.37545 70.9444 1.13759C71.1216 0.899725 71.358 0.661861 71.6534 0.483463C71.9488 0.305065 72.2738 0.0969335 72.7464 0.00773444C72.8351 -0.0219986 72.9532 0.0374674 72.9828 0.126666C73.2191 0.542929 73.3077 0.929458 73.3668 1.28625C73.4259 1.64305 73.4259 1.97011 73.3668 2.26744C73.3077 2.56477 73.1896 2.83237 72.9828 3.07023C72.776 3.3081 72.5692 3.54596 72.3919 3.78383C72.067 4.28929 71.6829 4.76502 71.2989 5.24074C70.9148 5.71647 70.5308 6.1922 70.0877 6.66793C70.0286 6.72739 69.9399 6.72739 69.8809 6.66793C69.9104 6.60846 69.8809 6.549 69.8809 6.51926Z" fill="#FF6338"/>
<path d="M72.629 8.71949C73.2198 8.48163 73.7811 8.2735 74.372 8.0951C74.9628 7.9167 75.5537 7.7383 76.115 7.58964C76.4104 7.53017 76.7058 7.38151 77.0012 7.29231C77.2966 7.20311 77.5921 7.17338 77.8875 7.23284C78.1829 7.29231 78.4783 7.41124 78.8033 7.58964C79.0987 7.76804 79.4237 7.97617 79.7191 8.3627C79.7782 8.4519 79.7782 8.54109 79.7191 8.63029C79.4532 9.01682 79.1578 9.28442 78.8624 9.49255C78.567 9.70068 78.3011 9.84935 78.0057 9.93855C77.7102 10.0277 77.4148 10.0277 77.1194 9.96828C76.824 9.90881 76.5286 9.78988 76.2331 9.76015C75.6423 9.67095 75.0515 9.58175 74.4311 9.46282C73.8402 9.34389 73.2198 9.19522 72.629 9.01682C72.5404 8.98709 72.5108 8.92762 72.5404 8.83842C72.5699 8.74923 72.5995 8.71949 72.629 8.71949Z" fill="#FF6338"/>
<path d="M71.4765 7.38157C72.0083 6.72745 72.54 6.13279 73.1013 5.53813L73.9285 4.64614C74.2239 4.34881 74.4898 4.08121 74.7852 3.78388C75.0806 3.51628 75.317 3.15949 75.6124 2.86216C75.8783 2.56483 76.2032 2.29723 76.5577 2.14856C76.9123 1.97017 77.3258 1.85123 77.7394 1.76203C78.1826 1.67284 78.6257 1.6431 79.187 1.70257C79.2756 1.70257 79.3642 1.8215 79.3347 1.9107C79.2461 2.44589 79.0688 2.89189 78.862 3.27842C78.6552 3.66495 78.3894 3.99201 78.1235 4.31907C77.8576 4.6164 77.5326 4.85427 77.1486 5.03267C76.7645 5.21106 76.3805 5.35973 76.026 5.53813C75.6715 5.71652 75.317 5.92466 74.9625 6.10305L73.8694 6.63825C73.1309 6.99504 72.3923 7.32211 71.6242 7.61944C71.5651 7.64917 71.4765 7.61944 71.447 7.53024C71.4174 7.47077 71.447 7.44104 71.4765 7.38157Z" fill="#FF6338"/>
<path d="M15.1006 6.85401C15.7162 7.83807 16.2594 8.82212 16.6577 9.87907C17.056 10.936 17.4182 12.0294 17.6716 13.1593C17.8165 13.6331 17.8889 14.0704 17.9613 14.5078C17.9976 14.9451 18.0338 15.4189 18.07 15.8563C17.9976 17.2048 17.9613 18.5533 17.9251 19.9019C17.8889 21.2504 17.7441 22.5989 17.4906 23.911C17.4906 23.9474 17.4906 23.9474 17.4544 23.9474C17.4544 23.9474 17.4182 23.9474 17.4182 23.9839C16.8388 25.6604 16.0783 27.264 15.1006 28.7948C14.1228 30.3255 13.0727 31.747 12.0225 33.0955C10.1395 33.1684 8.25642 33.2048 6.33717 33.2048C4.41791 33.2048 2.57108 33.2413 0.796673 33.2413L0.724248 33.3142C0.398336 31.0545 0.217274 28.7219 0.14485 26.28C0.0362124 23.8745 0 21.3962 0 18.9178C0 16.4394 0.0362124 13.9246 0.0724248 11.3734C0.108637 8.82212 0.108637 6.34376 0.0362124 3.82896C0.0724248 3.79251 0.0724248 3.75606 0.108637 3.75606C0.108637 3.71962 0.14485 3.68317 0.181062 3.68317C0.977735 3.50094 1.81062 3.35515 2.67972 3.28226C3.54881 3.20937 4.41791 3.17292 5.28701 3.20937C6.15611 3.20937 7.0252 3.24581 7.8943 3.28226C8.7634 3.31871 9.59628 3.31871 10.4292 3.28226C11.3345 3.50094 12.2036 3.97474 13.0365 4.63078C13.9056 5.25037 14.5936 6.01574 15.1006 6.85401ZM11.1896 22.4531C11.6604 21.7242 12.0225 20.8859 12.2398 20.0112C12.4571 19.1365 12.4571 18.1524 12.2036 17.0955C12.1312 16.6581 12.0225 16.2208 11.9139 15.747C11.8052 15.2731 11.6242 14.8358 11.4069 14.3984C11.1896 13.9611 10.9361 13.5966 10.6102 13.2686C10.2843 12.9406 9.88598 12.6854 9.41522 12.5032C8.94446 12.4303 8.40127 12.3939 7.82188 12.3939C7.24248 12.3939 6.69929 12.4303 6.19232 12.5397H6.15611H6.11989V12.6854C6.19232 13.4508 6.19232 14.2891 6.19232 15.1638C6.19232 16.0385 6.19232 16.9861 6.15611 17.9337C6.11989 18.8814 6.11989 19.8654 6.11989 20.8495C6.11989 21.8335 6.15611 22.8176 6.19232 23.8016C6.51823 24.0932 6.95278 24.2025 7.49596 24.2025C8.03915 24.1661 8.58234 24.1296 9.08931 24.0567C9.23416 24.0932 9.3428 24.0567 9.48765 23.9839C9.59628 23.911 9.74113 23.8381 9.88598 23.8016C10.1757 23.6194 10.4292 23.4372 10.6464 23.182C10.8275 22.9634 11.0086 22.7082 11.1896 22.4531Z" fill="#30282A"/>
<path d="M20.8221 13.7787C21.0031 13.3414 21.329 12.9769 21.7998 12.6489C22.2344 12.3209 22.7413 12.0657 23.3207 11.8471C23.9001 11.6284 24.5157 11.4826 25.2038 11.4097C25.8556 11.3368 26.5436 11.2639 27.2317 11.2639C27.8111 11.3368 28.3542 11.3368 28.8612 11.3004C29.4044 11.2639 29.9476 11.2639 30.5632 11.3368C31.4685 11.4097 32.3376 11.5555 33.1705 11.8835C34.0034 12.1751 34.6914 12.6124 35.307 13.1956C35.7054 13.4507 36.0313 13.8516 36.2486 14.4348C36.4658 15.0179 36.6469 15.6739 36.7555 16.4393C36.8642 17.2047 36.9366 18.043 36.9728 18.9177C37.009 19.8288 37.0452 20.74 37.0452 21.6876C37.009 22.5259 36.9728 23.4735 36.9366 24.5304C36.9004 25.5874 36.8279 26.6079 36.7193 27.5919C36.6107 28.576 36.502 29.4507 36.321 30.2161C36.1399 30.9815 35.9589 31.5282 35.6692 31.8197C35.1984 32.5122 34.5466 32.986 33.7861 33.2776C32.9894 33.5692 32.1566 33.7514 31.2512 33.8243C30.3459 33.8972 29.4044 33.8972 28.4267 33.8243C27.4489 33.7514 26.5798 33.7149 25.7832 33.7149C24.3347 33.4598 23.1035 32.8402 22.1257 31.8197C21.3653 31.1272 20.8221 30.289 20.5324 29.232C20.2427 28.2115 20.0616 27.1181 20.0254 25.9883C19.953 24.8584 19.953 23.7286 19.9892 22.5623C20.0254 21.4325 20.0254 20.3755 19.9168 19.4279C19.9168 18.9177 19.9168 18.4074 19.953 17.8972C19.9892 17.3869 20.0254 16.8767 20.134 16.33C20.1702 16.002 20.2789 15.601 20.4237 15.0543C20.6048 14.5077 20.7496 14.0703 20.8221 13.7787ZM26.1453 18.8448C25.9642 18.9541 25.8556 19.2457 25.747 19.7195C25.6383 20.6307 25.5659 21.5418 25.5659 22.453C25.5659 23.3641 25.5297 24.3118 25.4935 25.2958C25.4573 25.9518 25.6383 26.4621 26.0004 26.8266C26.3626 27.191 26.8333 27.4097 27.3403 27.5555C27.8835 27.7013 28.4267 27.7013 28.9699 27.6284C29.5493 27.5555 30.02 27.4097 30.3821 27.2275C30.8529 27.0088 31.1788 26.535 31.3599 25.8061C31.4685 24.8949 31.5772 23.9837 31.6496 23.0361C31.722 22.0885 31.6858 21.2138 31.5047 20.412C31.3599 19.4279 30.9615 18.6626 30.2735 18.2252C29.5855 17.7514 28.6802 17.6785 27.5938 17.9336C27.0144 18.043 26.5074 18.371 26.1453 18.8448Z" fill="#30282A"/>
<path d="M87.6947 14.1797C87.8396 14.1068 88.0206 13.9975 88.2379 13.8881C88.4552 13.7788 88.6362 13.6695 88.7811 13.5601C89.3605 13.1228 90.0485 12.7947 90.7728 12.5396C91.497 12.2845 92.2575 12.1387 93.0541 12.1023C93.8508 12.0658 94.6113 12.1751 95.3355 12.3574C96.0598 12.5761 96.7478 12.9041 97.3272 13.4143C97.6169 13.6695 97.8342 14.2162 97.979 15.018C98.1239 15.8198 98.2325 16.8039 98.2687 17.9701C98.3049 19.1 98.3412 20.3756 98.3049 21.7241C98.3049 23.0726 98.2687 24.4576 98.2325 25.8426C98.1963 27.2275 98.1601 28.5761 98.1601 29.8517C98.1239 31.1273 98.1601 32.2572 98.1963 33.2412C97.1823 33.387 96.3133 33.4599 95.5166 33.4234C94.7199 33.4234 93.8508 33.387 92.8369 33.387C92.7644 32.731 92.7644 32.002 92.7644 31.1638C92.7644 30.3255 92.7644 29.4872 92.8007 28.5761C92.8007 27.7013 92.8007 26.7902 92.8007 25.9155C92.8007 25.0408 92.7644 24.2025 92.692 23.4371C92.6558 23.1091 92.6196 22.7082 92.6196 22.3073C92.5834 21.9064 92.5472 21.469 92.4747 21.0681C92.4023 20.6672 92.2937 20.3027 92.185 20.0111C92.0402 19.6831 91.8953 19.4644 91.6419 19.2822C91.6056 19.2458 91.5694 19.2458 91.5694 19.2458C91.5332 19.2458 91.497 19.2458 91.497 19.2093C91.2797 19.1 90.9176 18.9906 90.4831 18.9177C90.0485 18.8449 89.614 18.8813 89.1794 18.9906C88.7449 19.1364 88.3827 19.3916 88.0206 19.756C87.6947 20.1569 87.4774 20.7401 87.4412 21.5054C87.3688 22.5259 87.3688 23.4736 87.405 24.4576C87.4412 25.4052 87.4774 26.3893 87.5136 27.3369C87.5499 28.2845 87.5861 29.2321 87.5861 30.1797C87.5861 31.1273 87.5136 32.0749 87.405 33.0225V33.2048C86.9342 33.3506 86.4997 33.4234 86.1376 33.4599C85.7755 33.4963 85.4133 33.4963 85.0512 33.4963C84.6891 33.4963 84.2545 33.4599 83.82 33.4234C83.3492 33.387 82.806 33.4234 82.118 33.4599C82.118 29.9246 82.0818 26.4257 82.0094 22.8904C81.9369 19.3551 81.9731 15.7105 82.0818 11.9565C82.4077 11.9929 82.6974 11.9929 82.9509 12.0294C83.1682 12.0294 83.3854 12.0658 83.6027 12.0658C83.7838 12.0658 84.001 12.0658 84.2545 12.0294C84.4718 12.0294 84.7615 11.9929 85.1236 11.9565C85.2323 11.9565 85.4495 11.92 85.703 11.8836C85.9927 11.8471 86.2824 11.8107 86.5721 11.7742C86.8618 11.7378 87.1153 11.7378 87.3326 11.7378C87.5499 11.7378 87.6585 11.8107 87.6585 11.8836C87.7309 12.3574 87.7309 12.7583 87.7309 13.0863C87.6585 13.4508 87.6947 13.7788 87.6947 14.1797Z" fill="#30282A"/>
<path d="M111.703 31.018C111.559 31.0909 111.377 31.2003 111.16 31.3096C110.943 31.419 110.762 31.5283 110.617 31.6376C110.038 32.075 109.35 32.403 108.625 32.6581C107.901 32.9133 107.141 33.059 106.344 33.0955C105.547 33.1319 104.787 33.0226 104.063 32.8404C103.338 32.6581 102.65 32.2937 102.071 31.7834C101.781 31.5283 101.564 30.9816 101.419 30.1798C101.274 29.378 101.166 28.3939 101.129 27.2276C101.093 26.0978 101.057 24.8221 101.093 23.4736C101.093 22.1251 101.129 20.7401 101.166 19.3552C101.202 17.9702 101.238 16.6217 101.238 15.3461C101.274 14.0704 101.238 12.9406 101.202 11.9565C102.18 11.8108 103.085 11.7379 103.881 11.7743C104.678 11.7743 105.547 11.8108 106.561 11.8108C106.634 12.4668 106.634 13.1957 106.634 14.034C106.634 14.8723 106.634 15.7105 106.597 16.6217C106.597 17.4964 106.597 18.4076 106.597 19.2823C106.597 20.157 106.634 20.9953 106.706 21.7606C106.742 22.0887 106.778 22.4896 106.778 22.8905C106.815 23.2914 106.851 23.7288 106.923 24.1297C106.996 24.5306 107.104 24.895 107.213 25.1866C107.358 25.5146 107.503 25.7333 107.756 25.9155C107.792 25.952 107.829 25.952 107.829 25.952C107.865 25.952 107.901 25.952 107.901 25.9884C108.118 26.0978 108.48 26.2071 108.915 26.28C109.35 26.3529 109.784 26.3165 110.219 26.2071C110.653 26.0613 111.015 25.8062 111.377 25.4417C111.703 25.0408 111.921 24.4577 111.957 23.6923C112.029 22.7083 112.029 21.7606 111.993 20.7766C111.957 19.7925 111.921 18.8449 111.884 17.8609C111.848 16.9133 111.812 15.9657 111.812 15.018C111.812 14.0704 111.848 13.1228 111.993 12.1752V11.993C112.464 11.8472 112.898 11.7743 113.26 11.7379C113.623 11.7014 113.985 11.7014 114.347 11.7014C114.709 11.7014 115.144 11.7379 115.578 11.7743C116.049 11.8108 116.592 11.7743 117.28 11.7379C117.28 15.2732 117.316 18.772 117.389 22.3073C117.461 25.8426 117.425 29.4873 117.316 33.2413C116.99 33.2048 116.701 33.2048 116.447 33.1684C116.23 33.1684 116.013 33.1319 115.795 33.1319C115.578 33.1319 115.397 33.1319 115.144 33.1684C114.926 33.1684 114.637 33.2048 114.274 33.2413C114.166 33.2413 113.949 33.2777 113.695 33.3142C113.405 33.3506 113.116 33.3871 112.826 33.4235C112.536 33.46 112.283 33.46 112.065 33.46C111.848 33.46 111.74 33.3871 111.74 33.3142C111.667 32.8404 111.667 32.4395 111.667 32.1114C111.74 31.7834 111.703 31.419 111.703 31.018Z" fill="#30282A"/>
<path d="M128.072 3.97469V9.73323C128.072 10.0977 128.072 10.4986 128.108 10.8995C128.108 11.3004 128.144 11.7013 128.144 12.1387C129.013 12.1023 129.955 12.0658 130.933 11.9929C131.91 11.92 133.142 11.8471 134.59 11.7742C134.771 11.9929 134.916 12.3574 134.916 12.7947C134.952 13.2321 134.952 13.7059 134.916 14.2162C134.88 14.7264 134.844 15.2367 134.807 15.7833C134.771 16.33 134.771 16.7674 134.844 17.1319H128.217C128.217 18.6626 128.217 20.1934 128.217 21.6512C128.217 23.1091 128.217 24.4941 128.253 25.8061C128.543 26.207 128.941 26.5351 129.484 26.7537C130.027 26.9724 130.607 27.1546 131.222 27.3004C131.838 27.4462 132.49 27.5191 133.105 27.5191C133.757 27.5556 134.3 27.5556 134.807 27.5191C134.88 27.92 134.916 28.3574 134.988 28.8676C135.061 29.3414 135.097 29.8517 135.133 30.3619C135.17 30.8722 135.17 31.3824 135.097 31.8927C135.061 32.4029 134.952 32.8767 134.807 33.3141C133.685 33.387 132.49 33.3505 131.259 33.2777C130.027 33.2048 128.869 33.059 127.818 32.7674C126.732 32.5123 125.791 32.1114 124.921 31.6011C124.089 31.0909 123.473 30.3984 123.111 29.4872C122.749 27.3004 122.531 25.1865 122.459 23.2549C122.387 21.2868 122.387 19.2822 122.423 17.1683C121.952 17.2048 121.481 17.2048 121.01 17.2048C120.504 17.2048 119.96 17.2048 119.381 17.2048L119.526 11.9565C120.105 11.9929 120.612 11.9929 121.119 11.9929C121.626 11.9929 122.097 11.9929 122.531 11.9929C122.531 11.3733 122.531 10.6808 122.495 9.95191C122.459 9.22298 122.459 8.49405 122.459 7.72868C122.459 6.99975 122.459 6.27082 122.495 5.57834C122.495 4.88585 122.531 4.26626 122.604 3.71957C122.966 3.64667 123.364 3.64667 123.835 3.68312C124.27 3.71957 124.74 3.75601 125.211 3.79246C125.682 3.82891 126.189 3.86535 126.66 3.9018C127.094 4.04758 127.601 4.04758 128.072 3.97469Z" fill="#30282A"/>
<path d="M154 18.4804C153.095 18.6262 152.081 18.6991 150.994 18.7355C149.908 18.772 148.858 18.6626 147.916 18.4804C147.989 18.1524 147.952 17.7879 147.808 17.4599C147.663 17.1319 147.409 16.8038 147.12 16.5487C146.83 16.2936 146.468 16.1114 146.106 15.9656C145.707 15.8198 145.345 15.7833 144.983 15.8198C144.331 15.9291 143.824 16.1843 143.498 16.5852C143.172 16.9861 142.991 17.387 142.991 17.8608C142.991 18.3346 143.172 18.772 143.498 19.2458C143.824 19.7196 144.331 20.0476 144.983 20.2663C146.576 20.4849 148.061 20.813 149.473 21.1774C150.849 21.5783 151.9 22.1979 152.551 23.0362C153.167 24.0567 153.565 25.1136 153.71 26.207C153.855 27.264 153.638 28.6125 153.131 30.1797C152.479 31.5647 151.465 32.5852 150.053 33.1683C148.677 33.7515 147.12 34.043 145.49 34.043C144.041 34.1159 142.738 33.9701 141.579 33.6421C140.42 33.3141 139.406 32.8403 138.573 32.2207C137.741 31.6011 137.089 30.8357 136.618 29.8881C136.147 28.977 135.93 27.9565 135.93 26.7902V26.6444V26.5715C136.871 26.4622 137.922 26.4257 139.117 26.4622C140.312 26.4986 141.362 26.5351 142.231 26.5351C142.267 27.1911 142.557 27.7378 143.136 28.1387C143.716 28.5396 144.331 28.7947 144.983 28.8676C145.635 28.9405 146.25 28.8312 146.757 28.5032C147.301 28.1751 147.554 27.6284 147.518 26.7902C147.59 26.0977 147.445 25.5874 147.047 25.2594C146.649 24.9314 146.106 24.6398 145.454 24.4576C144.802 24.2754 144.078 24.0931 143.245 23.9474C142.412 23.8016 141.615 23.5464 140.819 23.2184C139.225 22.6717 138.066 21.8335 137.342 20.6672C136.618 19.5009 136.292 18.2982 136.328 17.059C136.364 15.8198 136.763 14.6535 137.523 13.5966C138.284 12.5396 139.334 11.8107 140.746 11.4462C141.289 11.3004 141.941 11.1911 142.738 11.1182C143.535 11.0453 144.367 10.9724 145.236 10.9724C146.106 10.9724 147.011 11.0089 147.88 11.1182C148.749 11.2275 149.582 11.3369 150.306 11.5191C151.646 12.1023 152.588 13.0134 153.167 14.2526C153.71 15.5282 154 16.9496 154 18.4804Z" fill="#30282A"/>
</g>
<defs>
<clipPath id="clip0_2_106">
<rect width="154" height="40" fill="white"/>
</clipPath>
</defs>
</svg>
