<svg width="44" height="43" viewBox="0 0 44 43" fill="none" xmlns="http://www.w3.org/2000/svg">
<ellipse cx="21.9997" cy="21.5" rx="21.6549" ry="21.5" fill="white" fill-opacity="0.2"/>
<g clip-path="url(#clip0_48_214)">
<path d="M30.1822 16.6039C29.5618 16.8741 28.9008 17.0532 28.2116 17.1401C28.9206 16.7198 29.4617 16.0594 29.7161 15.2633C29.0551 15.6546 28.3253 15.931 27.5474 16.0853C26.9198 15.4217 26.0252 15.0107 25.0493 15.0107C23.1558 15.0107 21.6315 16.5366 21.6315 18.4072C21.6315 18.6763 21.6544 18.9351 21.7107 19.1815C18.8674 19.0438 16.3515 17.6908 14.6614 15.6298C14.3663 16.1381 14.1932 16.7198 14.1932 17.3461C14.1932 18.5221 14.8032 19.5645 15.7124 20.168C15.1629 20.1577 14.6238 19.9993 14.1672 19.7498C14.1672 19.7602 14.1672 19.7736 14.1672 19.7871C14.1672 21.4372 15.3527 22.8078 16.9072 23.1235C16.6289 23.1991 16.3254 23.2353 16.0106 23.2353C15.7916 23.2353 15.5706 23.2229 15.3631 23.1773C15.8062 24.522 17.0636 25.5106 18.5588 25.5427C17.3952 26.4464 15.9178 26.9909 14.3184 26.9909C14.0379 26.9909 13.7689 26.9785 13.4999 26.9444C15.0148 27.9143 16.8103 28.4681 18.7465 28.4681C25.0399 28.4681 28.4806 23.2922 28.4806 18.8057C28.4806 18.6556 28.4754 18.5107 28.4681 18.3668C29.1469 17.8886 29.7172 17.2913 30.1822 16.6039Z" fill="white"/>
</g>
<defs>
<clipPath id="clip0_48_214">
<rect width="16.6823" height="16.563" fill="white" transform="translate(13.4999 13.458)"/>
</clipPath>
</defs>
</svg>
